<svg width="30" height="32" viewBox="0 0 30 32" fill="none" xmlns="http://www.w3.org/2000/svg">
<path d="M3.94964 28.1631H22.8908L21.9862 25.234C22.1203 25.3509 29.7465 31.8878 29.7465 31.8878V3.29478C29.6561 1.51743 28.1258 0.00708008 26.2289 0.00708008L3.95628 0.0110652C2.06071 0.0110652 0.522461 1.52407 0.522461 3.30142V24.874C0.522461 26.7484 2.05805 28.1631 3.94964 28.1631ZM17.9612 7.55617L17.9174 7.57211L17.9333 7.55617H17.9612ZM7.82447 9.24186C10.2594 7.46983 12.5163 7.55484 12.5163 7.55484L12.6982 7.73417C9.71872 8.44484 8.36777 9.77586 8.36777 9.77586C8.50592 9.74664 14.5221 6.27563 21.8121 9.86354C21.8121 9.86354 20.4585 8.61886 17.6623 7.82184L17.9094 7.57875C18.296 7.58008 20.3416 7.65181 22.5308 9.25249C22.5308 9.25249 24.9803 13.4368 24.9803 18.5776C24.8993 18.4793 23.4606 20.7907 19.7585 20.8704C19.7585 20.8704 19.1315 20.161 18.6852 19.542C20.8504 18.9203 21.6607 17.677 21.6607 17.677C17.4458 20.331 13.7516 19.9166 9.33217 18.1233C9.29099 18.1233 9.27239 18.1047 9.25114 18.0834V18.0755C9.22988 18.0556 9.21129 18.0356 9.17011 18.0356H9.0904C8.81942 17.8576 8.63876 17.77 8.63876 17.77C8.63876 17.77 9.44773 19.0133 11.5266 19.635C10.9807 20.258 10.44 20.966 10.44 20.966C6.7392 20.8783 5.38958 18.567 5.38958 18.567C5.38958 13.4182 7.82447 9.24186 7.82447 9.24186Z" fill="#C9C9C9"/>
<path d="M18.1999 16.9716C19.1444 16.9716 19.9135 16.1746 19.9135 15.1916C19.9135 14.2152 19.1484 13.4182 18.1999 13.4182V13.4222C17.2594 13.4222 16.489 14.2166 16.4863 15.1995C16.4863 16.1746 17.2555 16.9716 18.1999 16.9716Z" fill="#C9C9C9"/>
<path d="M12.0656 16.9716C13.0101 16.9716 13.7792 16.1746 13.7792 15.1916C13.7792 14.2152 13.0154 13.4182 12.071 13.4182L12.0656 13.4222C11.1212 13.4222 10.3521 14.2166 10.3521 15.1995C10.3521 16.1746 11.1212 16.9716 12.0656 16.9716Z" fill="#C9C9C9"/>
</svg>
