<svg width="60" height="33" viewBox="0 0 60 33" fill="none" xmlns="http://www.w3.org/2000/svg">
<path d="M26.8519 26.6794C26.8519 29.9939 29.3048 32.6809 32.3307 32.6809H50.5638C52.2979 32.6809 53.7037 31.141 53.7037 29.2415C53.7037 27.342 52.2979 25.8022 50.5638 25.8022H37.269C37.1856 25.8022 37.118 25.7281 37.118 25.6367C37.118 25.5878 37.1377 25.5414 37.1719 25.51L43.2104 19.9568C44.1884 19.0575 44.7531 17.7305 44.7531 16.3318C44.7531 14.9431 44.1963 13.6244 43.2301 12.7251L37.2631 7.17097C37.2293 7.13945 37.2097 7.09323 37.2097 7.04456C37.2097 6.95295 37.2775 6.87868 37.3612 6.87868L50.5638 6.87868C52.2979 6.87868 53.7037 5.33883 53.7037 3.43934C53.7037 1.53984 52.2979 6.68841e-08 50.5638 1.4939e-07L26.8519 1.27756e-06V8.74819L34.5784 16.0572C34.6536 16.1283 34.6967 16.2317 34.6967 16.3404C34.6967 16.4492 34.6536 16.5525 34.5784 16.6236L28.7497 22.1374C27.5446 23.2774 26.8519 24.9353 26.8519 26.6794Z" fill="white"/>
<path d="M5.24524 0C2.34838 0 0 2.57235 0 5.74549V28.8976C0 30.987 1.54635 32.6809 3.45387 32.6809C5.36139 32.6809 6.90774 30.987 6.90774 28.8976V12.653C6.90774 12.5656 6.97245 12.4947 7.05228 12.4947C7.112 12.4947 7.16557 12.5349 7.1871 12.5959L13.4058 30.2162C13.8859 31.5765 15.0803 32.4734 16.4117 32.4734C17.7409 32.4734 18.9338 31.5795 19.4154 30.2224L25.6676 12.6064L26.8519 8.74819V1.27756e-06C25.1489 5.05537e-07 23.6166 1.13277 22.9794 2.86266L16.6458 20.0593C16.6069 20.1649 16.5134 20.234 16.4095 20.234C16.3055 20.234 16.212 20.1649 16.1731 20.0593L10.1096 3.59591C9.30923 1.42292 7.3844 0 5.24524 0Z" fill="white"/>
</svg>
