<svg width="39" height="32" viewBox="0 0 39 32" fill="none" xmlns="http://www.w3.org/2000/svg">
<path d="M38.5225 3.71505C37.09 4.34389 35.5635 4.76071 33.9721 4.96309C35.6093 3.9849 36.8588 2.44774 37.4463 0.594959C35.9199 1.50569 34.2345 2.14898 32.4384 2.50797C30.989 0.963588 28.9232 0.00708008 26.6696 0.00708008C22.2973 0.00708008 18.7773 3.55845 18.7773 7.91212C18.7773 8.53855 18.8303 9.14088 18.9603 9.71431C12.3946 9.39386 6.58495 6.24486 2.68213 1.44786C2.00076 2.63085 1.60109 3.9849 1.60109 5.44255C1.60109 8.17956 3.00957 10.6058 5.10905 12.0104C3.84022 11.9863 2.59546 11.6177 1.5409 11.037C1.5409 11.0611 1.5409 11.0924 1.5409 11.1238C1.5409 14.9643 4.27841 18.1542 7.86823 18.8891C7.22538 19.065 6.52475 19.1493 5.79764 19.1493C5.29203 19.1493 4.78161 19.1204 4.30249 19.0144C5.32574 22.1441 8.22938 24.445 11.682 24.5197C8.99501 26.623 5.58336 27.8904 1.89001 27.8904C1.24235 27.8904 0.621176 27.8614 0 27.7819C3.49833 30.0395 7.64432 31.3285 12.1153 31.3285C26.648 31.3285 34.5932 19.2818 34.5932 8.83972C34.5932 8.49036 34.5812 8.15305 34.5643 7.81816C36.1317 6.70504 37.4487 5.31485 38.5225 3.71505Z" fill="#C9C9C9"/>
</svg>
